<?xml version="1.0" standalone="no"?><!DOCTYPE svg PUBLIC "-//W3C//DTD SVG 1.1//EN" "http://www.w3.org/Graphics/SVG/1.1/DTD/svg11.dtd"><svg t="1561297783939" class="icon" viewBox="0 0 1024 1024" version="1.1" xmlns="http://www.w3.org/2000/svg" p-id="785" xmlns:xlink="http://www.w3.org/1999/xlink" width="128" height="128"><rect width="100%" height="100%" fill="white"/><defs><style type="text/css"></style></defs><path d="M297.202912 381.402593l428.553473 0 0 55.898101L297.202912 437.300694 297.202912 381.402593 297.202912 381.402593zM297.202912 530.46249l93.163843 0 0 55.894008L297.202912 586.356498 297.202912 530.46249 297.202912 530.46249zM297.202912 679.523411l186.327686 0 0 55.898101L297.202912 735.421512 297.202912 679.523411 297.202912 679.523411zM583.304999 700.330296 914.164453 369.947703l35.18229 35.134195L618.489336 735.464491 583.304999 700.330296 583.304999 700.330296zM479.55403 528.299221l172.372859 172.131359-35.07075 35.023678L444.478164 563.329039 479.55403 528.299221 479.55403 528.299221zM893.450688 549.09792l0 316.754201c0 20.4958-16.738219 37.263695-37.267788 37.263695L166.773328 903.115815c-20.531616 0-37.265742-16.767895-37.265742-37.263695L129.507586 232.338602c0-20.4958 16.734126-37.263695 37.265742-37.263695L297.202912 195.074907l0 74.52739 428.553473 0L725.756385 195.075931l130.427538 0c20.529569 0 37.267788 16.767895 37.267788 37.263695l0 74.532507 55.896054 0 0-93.166913c0-40.99774-38.534642-74.52739-79.580476-74.52739L725.755362 139.177829 725.755362 64.644299 297.529347 64.644299l0 74.532507-149.279908 0c-41.055045 0-74.640977 33.533744-74.640977 74.532507l0 670.771073c0 40.98853 33.477462 74.532507 74.534554 74.532507l726.675314 0c41.045835 0 74.529437-33.538861 74.529437-74.532507L949.347766 549.09792 893.450688 549.09792zM353.101014 120.5424l316.758294 0 0 93.161796L353.101014 213.704197 353.101014 120.5424 353.101014 120.5424zM353.101014 120.5424" p-id="786" fill="#1296db"></path></svg>
